<mxfile host="app.diagrams.net" modified="2023-12-23T19:40:54.142Z" agent="Mozilla/5.0 (Windows NT 10.0; Win64; x64) AppleWebKit/537.36 (KHTML, like Gecko) Chrome/119.0.0.0 Safari/537.36 OPR/105.0.0.0" etag="Nl5P32YPOXGxro2T-CxB" version="22.1.11" type="github">
  <diagram id="C5RBs43oDa-KdzZeNtuy" name="Page-1">
    <mxGraphModel dx="2552" dy="936" grid="1" gridSize="10" guides="1" tooltips="1" connect="1" arrows="1" fold="1" page="1" pageScale="1" pageWidth="827" pageHeight="1169" math="0" shadow="0">
      <root>
        <mxCell id="WIyWlLk6GJQsqaUBKTNV-0" />
        <mxCell id="WIyWlLk6GJQsqaUBKTNV-1" parent="WIyWlLk6GJQsqaUBKTNV-0" />
        <mxCell id="0GUvXhndow0v7ntM_QwC-140" style="edgeStyle=orthogonalEdgeStyle;rounded=0;orthogonalLoop=1;jettySize=auto;html=1;entryX=0;entryY=0.5;entryDx=0;entryDy=0;" edge="1" parent="WIyWlLk6GJQsqaUBKTNV-1" source="0GUvXhndow0v7ntM_QwC-0" target="0GUvXhndow0v7ntM_QwC-29">
          <mxGeometry relative="1" as="geometry" />
        </mxCell>
        <mxCell id="0GUvXhndow0v7ntM_QwC-0" value="Account" style="swimlane;fontStyle=0;align=center;verticalAlign=top;childLayout=stackLayout;horizontal=1;startSize=26;horizontalStack=0;resizeParent=1;resizeLast=0;collapsible=1;marginBottom=0;rounded=0;shadow=0;strokeWidth=1;" vertex="1" parent="WIyWlLk6GJQsqaUBKTNV-1">
          <mxGeometry x="80" y="800" width="160" height="90" as="geometry">
            <mxRectangle x="130" y="380" width="160" height="26" as="alternateBounds" />
          </mxGeometry>
        </mxCell>
        <mxCell id="0GUvXhndow0v7ntM_QwC-6" value="PaymentMethods: string" style="text;align=left;verticalAlign=top;spacingLeft=4;spacingRight=4;overflow=hidden;rotatable=0;points=[[0,0.5],[1,0.5]];portConstraint=eastwest;rounded=0;shadow=0;html=0;" vertex="1" parent="0GUvXhndow0v7ntM_QwC-0">
          <mxGeometry y="26" width="160" height="26" as="geometry" />
        </mxCell>
        <mxCell id="0GUvXhndow0v7ntM_QwC-2" value="Signature: enum" style="text;align=left;verticalAlign=top;spacingLeft=4;spacingRight=4;overflow=hidden;rotatable=0;points=[[0,0.5],[1,0.5]];portConstraint=eastwest;rounded=0;shadow=0;html=0;" vertex="1" parent="0GUvXhndow0v7ntM_QwC-0">
          <mxGeometry y="52" width="160" height="22" as="geometry" />
        </mxCell>
        <mxCell id="0GUvXhndow0v7ntM_QwC-139" style="edgeStyle=orthogonalEdgeStyle;rounded=0;orthogonalLoop=1;jettySize=auto;html=1;entryX=0.25;entryY=1;entryDx=0;entryDy=0;" edge="1" parent="WIyWlLk6GJQsqaUBKTNV-1" source="0GUvXhndow0v7ntM_QwC-7" target="0GUvXhndow0v7ntM_QwC-27">
          <mxGeometry relative="1" as="geometry" />
        </mxCell>
        <mxCell id="0GUvXhndow0v7ntM_QwC-7" value="Transaction" style="swimlane;fontStyle=0;align=center;verticalAlign=top;childLayout=stackLayout;horizontal=1;startSize=26;horizontalStack=0;resizeParent=1;resizeLast=0;collapsible=1;marginBottom=0;rounded=0;shadow=0;strokeWidth=1;" vertex="1" parent="WIyWlLk6GJQsqaUBKTNV-1">
          <mxGeometry x="280" y="800" width="160" height="160" as="geometry">
            <mxRectangle x="130" y="380" width="160" height="26" as="alternateBounds" />
          </mxGeometry>
        </mxCell>
        <mxCell id="0GUvXhndow0v7ntM_QwC-15" value="Amount: double" style="text;align=left;verticalAlign=top;spacingLeft=4;spacingRight=4;overflow=hidden;rotatable=0;points=[[0,0.5],[1,0.5]];portConstraint=eastwest;" vertex="1" parent="0GUvXhndow0v7ntM_QwC-7">
          <mxGeometry y="26" width="160" height="26" as="geometry" />
        </mxCell>
        <mxCell id="0GUvXhndow0v7ntM_QwC-25" value="MerchantId: string" style="text;align=left;verticalAlign=top;spacingLeft=4;spacingRight=4;overflow=hidden;rotatable=0;points=[[0,0.5],[1,0.5]];portConstraint=eastwest;" vertex="1" parent="0GUvXhndow0v7ntM_QwC-7">
          <mxGeometry y="52" width="160" height="26" as="geometry" />
        </mxCell>
        <mxCell id="0GUvXhndow0v7ntM_QwC-26" value="Description: string" style="text;align=left;verticalAlign=top;spacingLeft=4;spacingRight=4;overflow=hidden;rotatable=0;points=[[0,0.5],[1,0.5]];portConstraint=eastwest;" vertex="1" parent="0GUvXhndow0v7ntM_QwC-7">
          <mxGeometry y="78" width="160" height="26" as="geometry" />
        </mxCell>
        <mxCell id="0GUvXhndow0v7ntM_QwC-67" value="Status: enum" style="text;align=left;verticalAlign=top;spacingLeft=4;spacingRight=4;overflow=hidden;rotatable=0;points=[[0,0.5],[1,0.5]];portConstraint=eastwest;" vertex="1" parent="0GUvXhndow0v7ntM_QwC-7">
          <mxGeometry y="104" width="160" height="26" as="geometry" />
        </mxCell>
        <mxCell id="0GUvXhndow0v7ntM_QwC-17" value="PaymentMethod" style="swimlane;fontStyle=0;align=center;verticalAlign=top;childLayout=stackLayout;horizontal=1;startSize=26;horizontalStack=0;resizeParent=1;resizeLast=0;collapsible=1;marginBottom=0;rounded=0;shadow=0;strokeWidth=1;" vertex="1" parent="WIyWlLk6GJQsqaUBKTNV-1">
          <mxGeometry x="540" y="800" width="160" height="160" as="geometry">
            <mxRectangle x="130" y="380" width="160" height="26" as="alternateBounds" />
          </mxGeometry>
        </mxCell>
        <mxCell id="0GUvXhndow0v7ntM_QwC-18" value="CreditCard: string" style="text;align=left;verticalAlign=top;spacingLeft=4;spacingRight=4;overflow=hidden;rotatable=0;points=[[0,0.5],[1,0.5]];portConstraint=eastwest;" vertex="1" parent="0GUvXhndow0v7ntM_QwC-17">
          <mxGeometry y="26" width="160" height="26" as="geometry" />
        </mxCell>
        <mxCell id="0GUvXhndow0v7ntM_QwC-19" value="CardLimit:double" style="text;align=left;verticalAlign=top;spacingLeft=4;spacingRight=4;overflow=hidden;rotatable=0;points=[[0,0.5],[1,0.5]];portConstraint=eastwest;rounded=0;shadow=0;html=0;" vertex="1" parent="0GUvXhndow0v7ntM_QwC-17">
          <mxGeometry y="52" width="160" height="26" as="geometry" />
        </mxCell>
        <mxCell id="0GUvXhndow0v7ntM_QwC-20" value="IsActive: boolean" style="text;align=left;verticalAlign=top;spacingLeft=4;spacingRight=4;overflow=hidden;rotatable=0;points=[[0,0.5],[1,0.5]];portConstraint=eastwest;rounded=0;shadow=0;html=0;" vertex="1" parent="0GUvXhndow0v7ntM_QwC-17">
          <mxGeometry y="78" width="160" height="22" as="geometry" />
        </mxCell>
        <mxCell id="0GUvXhndow0v7ntM_QwC-21" value="Notification" style="swimlane;fontStyle=0;align=center;verticalAlign=top;childLayout=stackLayout;horizontal=1;startSize=26;horizontalStack=0;resizeParent=1;resizeLast=0;collapsible=1;marginBottom=0;rounded=0;shadow=0;strokeWidth=1;" vertex="1" parent="WIyWlLk6GJQsqaUBKTNV-1">
          <mxGeometry x="180" y="1000" width="160" height="120" as="geometry">
            <mxRectangle x="130" y="380" width="160" height="26" as="alternateBounds" />
          </mxGeometry>
        </mxCell>
        <mxCell id="0GUvXhndow0v7ntM_QwC-22" value="MerchantId: string" style="text;align=left;verticalAlign=top;spacingLeft=4;spacingRight=4;overflow=hidden;rotatable=0;points=[[0,0.5],[1,0.5]];portConstraint=eastwest;" vertex="1" parent="0GUvXhndow0v7ntM_QwC-21">
          <mxGeometry y="26" width="160" height="26" as="geometry" />
        </mxCell>
        <mxCell id="0GUvXhndow0v7ntM_QwC-24" value="Amount: double" style="text;align=left;verticalAlign=top;spacingLeft=4;spacingRight=4;overflow=hidden;rotatable=0;points=[[0,0.5],[1,0.5]];portConstraint=eastwest;" vertex="1" parent="0GUvXhndow0v7ntM_QwC-21">
          <mxGeometry y="52" width="160" height="26" as="geometry" />
        </mxCell>
        <mxCell id="0GUvXhndow0v7ntM_QwC-127" value="Status: enum" style="text;align=left;verticalAlign=top;spacingLeft=4;spacingRight=4;overflow=hidden;rotatable=0;points=[[0,0.5],[1,0.5]];portConstraint=eastwest;" vertex="1" parent="0GUvXhndow0v7ntM_QwC-21">
          <mxGeometry y="78" width="160" height="26" as="geometry" />
        </mxCell>
        <mxCell id="0GUvXhndow0v7ntM_QwC-27" value="Entity" style="swimlane;fontStyle=0;align=center;verticalAlign=top;childLayout=stackLayout;horizontal=1;startSize=26;horizontalStack=0;resizeParent=1;resizeLast=0;collapsible=1;marginBottom=0;rounded=0;shadow=0;strokeWidth=1;" vertex="1" parent="WIyWlLk6GJQsqaUBKTNV-1">
          <mxGeometry x="400" y="600" width="160" height="160" as="geometry">
            <mxRectangle x="130" y="380" width="160" height="26" as="alternateBounds" />
          </mxGeometry>
        </mxCell>
        <mxCell id="0GUvXhndow0v7ntM_QwC-28" value="Id: Guid" style="text;align=left;verticalAlign=top;spacingLeft=4;spacingRight=4;overflow=hidden;rotatable=0;points=[[0,0.5],[1,0.5]];portConstraint=eastwest;" vertex="1" parent="0GUvXhndow0v7ntM_QwC-27">
          <mxGeometry y="26" width="160" height="26" as="geometry" />
        </mxCell>
        <mxCell id="0GUvXhndow0v7ntM_QwC-29" value="Create: DateTime" style="text;align=left;verticalAlign=top;spacingLeft=4;spacingRight=4;overflow=hidden;rotatable=0;points=[[0,0.5],[1,0.5]];portConstraint=eastwest;" vertex="1" parent="0GUvXhndow0v7ntM_QwC-27">
          <mxGeometry y="52" width="160" height="26" as="geometry" />
        </mxCell>
        <mxCell id="0GUvXhndow0v7ntM_QwC-30" value="Update: DateTime" style="text;align=left;verticalAlign=top;spacingLeft=4;spacingRight=4;overflow=hidden;rotatable=0;points=[[0,0.5],[1,0.5]];portConstraint=eastwest;" vertex="1" parent="0GUvXhndow0v7ntM_QwC-27">
          <mxGeometry y="78" width="160" height="26" as="geometry" />
        </mxCell>
        <mxCell id="0GUvXhndow0v7ntM_QwC-136" style="edgeStyle=orthogonalEdgeStyle;rounded=0;orthogonalLoop=1;jettySize=auto;html=1;entryX=1;entryY=0.5;entryDx=0;entryDy=0;" edge="1" parent="WIyWlLk6GJQsqaUBKTNV-1" source="0GUvXhndow0v7ntM_QwC-34" target="0GUvXhndow0v7ntM_QwC-29">
          <mxGeometry relative="1" as="geometry" />
        </mxCell>
        <mxCell id="0GUvXhndow0v7ntM_QwC-34" value="CreditCard" style="swimlane;fontStyle=0;align=center;verticalAlign=top;childLayout=stackLayout;horizontal=1;startSize=26;horizontalStack=0;resizeParent=1;resizeLast=0;collapsible=1;marginBottom=0;rounded=0;shadow=0;strokeWidth=1;" vertex="1" parent="WIyWlLk6GJQsqaUBKTNV-1">
          <mxGeometry x="820" y="800" width="160" height="160" as="geometry">
            <mxRectangle x="130" y="380" width="160" height="26" as="alternateBounds" />
          </mxGeometry>
        </mxCell>
        <mxCell id="0GUvXhndow0v7ntM_QwC-35" value="Number: string" style="text;align=left;verticalAlign=top;spacingLeft=4;spacingRight=4;overflow=hidden;rotatable=0;points=[[0,0.5],[1,0.5]];portConstraint=eastwest;" vertex="1" parent="0GUvXhndow0v7ntM_QwC-34">
          <mxGeometry y="26" width="160" height="26" as="geometry" />
        </mxCell>
        <mxCell id="0GUvXhndow0v7ntM_QwC-36" value="UserName: string" style="text;align=left;verticalAlign=top;spacingLeft=4;spacingRight=4;overflow=hidden;rotatable=0;points=[[0,0.5],[1,0.5]];portConstraint=eastwest;rounded=0;shadow=0;html=0;" vertex="1" parent="0GUvXhndow0v7ntM_QwC-34">
          <mxGeometry y="52" width="160" height="26" as="geometry" />
        </mxCell>
        <mxCell id="0GUvXhndow0v7ntM_QwC-37" value="CVV: string" style="text;align=left;verticalAlign=top;spacingLeft=4;spacingRight=4;overflow=hidden;rotatable=0;points=[[0,0.5],[1,0.5]];portConstraint=eastwest;rounded=0;shadow=0;html=0;" vertex="1" parent="0GUvXhndow0v7ntM_QwC-34">
          <mxGeometry y="78" width="160" height="22" as="geometry" />
        </mxCell>
        <mxCell id="0GUvXhndow0v7ntM_QwC-38" value="Expiration: string" style="text;align=left;verticalAlign=top;spacingLeft=4;spacingRight=4;overflow=hidden;rotatable=0;points=[[0,0.5],[1,0.5]];portConstraint=eastwest;rounded=0;shadow=0;html=0;" vertex="1" parent="0GUvXhndow0v7ntM_QwC-34">
          <mxGeometry y="100" width="160" height="22" as="geometry" />
        </mxCell>
        <mxCell id="0GUvXhndow0v7ntM_QwC-138" style="edgeStyle=orthogonalEdgeStyle;rounded=0;orthogonalLoop=1;jettySize=auto;html=1;" edge="1" parent="WIyWlLk6GJQsqaUBKTNV-1" source="0GUvXhndow0v7ntM_QwC-39">
          <mxGeometry relative="1" as="geometry">
            <mxPoint x="500" y="760" as="targetPoint" />
          </mxGeometry>
        </mxCell>
        <mxCell id="0GUvXhndow0v7ntM_QwC-39" value="Signature" style="swimlane;fontStyle=0;align=center;verticalAlign=top;childLayout=stackLayout;horizontal=1;startSize=26;horizontalStack=0;resizeParent=1;resizeLast=0;collapsible=1;marginBottom=0;rounded=0;shadow=0;strokeWidth=1;" vertex="1" parent="WIyWlLk6GJQsqaUBKTNV-1">
          <mxGeometry x="520" y="1000" width="160" height="90" as="geometry">
            <mxRectangle x="130" y="380" width="160" height="26" as="alternateBounds" />
          </mxGeometry>
        </mxCell>
        <mxCell id="0GUvXhndow0v7ntM_QwC-47" value="Validity: timestamp" style="text;align=left;verticalAlign=top;spacingLeft=4;spacingRight=4;overflow=hidden;rotatable=0;points=[[0,0.5],[1,0.5]];portConstraint=eastwest;" vertex="1" parent="0GUvXhndow0v7ntM_QwC-39">
          <mxGeometry y="26" width="160" height="26" as="geometry" />
        </mxCell>
        <mxCell id="0GUvXhndow0v7ntM_QwC-44" value="Price: decimal" style="text;align=left;verticalAlign=top;spacingLeft=4;spacingRight=4;overflow=hidden;rotatable=0;points=[[0,0.5],[1,0.5]];portConstraint=eastwest;" vertex="1" parent="0GUvXhndow0v7ntM_QwC-39">
          <mxGeometry y="52" width="160" height="26" as="geometry" />
        </mxCell>
        <mxCell id="0GUvXhndow0v7ntM_QwC-150" style="edgeStyle=orthogonalEdgeStyle;rounded=0;orthogonalLoop=1;jettySize=auto;html=1;entryX=1;entryY=0.5;entryDx=0;entryDy=0;" edge="1" parent="WIyWlLk6GJQsqaUBKTNV-1" source="0GUvXhndow0v7ntM_QwC-59" target="0GUvXhndow0v7ntM_QwC-30">
          <mxGeometry relative="1" as="geometry" />
        </mxCell>
        <mxCell id="0GUvXhndow0v7ntM_QwC-59" value="User" style="swimlane;fontStyle=0;align=center;verticalAlign=top;childLayout=stackLayout;horizontal=1;startSize=26;horizontalStack=0;resizeParent=1;resizeLast=0;collapsible=1;marginBottom=0;rounded=0;shadow=0;strokeWidth=1;" vertex="1" parent="WIyWlLk6GJQsqaUBKTNV-1">
          <mxGeometry x="1060" y="790" width="160" height="200" as="geometry">
            <mxRectangle x="130" y="380" width="160" height="26" as="alternateBounds" />
          </mxGeometry>
        </mxCell>
        <mxCell id="0GUvXhndow0v7ntM_QwC-60" value="UserName: string" style="text;align=left;verticalAlign=top;spacingLeft=4;spacingRight=4;overflow=hidden;rotatable=0;points=[[0,0.5],[1,0.5]];portConstraint=eastwest;" vertex="1" parent="0GUvXhndow0v7ntM_QwC-59">
          <mxGeometry y="26" width="160" height="26" as="geometry" />
        </mxCell>
        <mxCell id="0GUvXhndow0v7ntM_QwC-61" value="CPF: string" style="text;align=left;verticalAlign=top;spacingLeft=4;spacingRight=4;overflow=hidden;rotatable=0;points=[[0,0.5],[1,0.5]];portConstraint=eastwest;rounded=0;shadow=0;html=0;" vertex="1" parent="0GUvXhndow0v7ntM_QwC-59">
          <mxGeometry y="52" width="160" height="26" as="geometry" />
        </mxCell>
        <mxCell id="0GUvXhndow0v7ntM_QwC-62" value="Birthing Date: datetime" style="text;align=left;verticalAlign=top;spacingLeft=4;spacingRight=4;overflow=hidden;rotatable=0;points=[[0,0.5],[1,0.5]];portConstraint=eastwest;rounded=0;shadow=0;html=0;" vertex="1" parent="0GUvXhndow0v7ntM_QwC-59">
          <mxGeometry y="78" width="160" height="22" as="geometry" />
        </mxCell>
        <mxCell id="0GUvXhndow0v7ntM_QwC-63" value="Password: string" style="text;align=left;verticalAlign=top;spacingLeft=4;spacingRight=4;overflow=hidden;rotatable=0;points=[[0,0.5],[1,0.5]];portConstraint=eastwest;rounded=0;shadow=0;html=0;" vertex="1" parent="0GUvXhndow0v7ntM_QwC-59">
          <mxGeometry y="100" width="160" height="22" as="geometry" />
        </mxCell>
        <mxCell id="0GUvXhndow0v7ntM_QwC-64" value="Avatar: string" style="text;align=left;verticalAlign=top;spacingLeft=4;spacingRight=4;overflow=hidden;rotatable=0;points=[[0,0.5],[1,0.5]];portConstraint=eastwest;rounded=0;shadow=0;html=0;" vertex="1" parent="0GUvXhndow0v7ntM_QwC-59">
          <mxGeometry y="122" width="160" height="22" as="geometry" />
        </mxCell>
        <mxCell id="0GUvXhndow0v7ntM_QwC-65" value="Email: string&#xa;&#xa;IsActive: bool" style="text;align=left;verticalAlign=top;spacingLeft=4;spacingRight=4;overflow=hidden;rotatable=0;points=[[0,0.5],[1,0.5]];portConstraint=eastwest;rounded=0;shadow=0;html=0;" vertex="1" parent="0GUvXhndow0v7ntM_QwC-59">
          <mxGeometry y="144" width="160" height="22" as="geometry" />
        </mxCell>
        <mxCell id="0GUvXhndow0v7ntM_QwC-66" value="IsActive: bool" style="text;align=left;verticalAlign=top;spacingLeft=4;spacingRight=4;overflow=hidden;rotatable=0;points=[[0,0.5],[1,0.5]];portConstraint=eastwest;rounded=0;shadow=0;html=0;" vertex="1" parent="0GUvXhndow0v7ntM_QwC-59">
          <mxGeometry y="166" width="160" height="22" as="geometry" />
        </mxCell>
        <mxCell id="0GUvXhndow0v7ntM_QwC-68" value="TransactionStatus" style="swimlane;fontStyle=0;align=center;verticalAlign=top;childLayout=stackLayout;horizontal=1;startSize=26;horizontalStack=0;resizeParent=1;resizeLast=0;collapsible=1;marginBottom=0;rounded=0;shadow=0;strokeWidth=1;" vertex="1" parent="WIyWlLk6GJQsqaUBKTNV-1">
          <mxGeometry x="-10" y="1000" width="160" height="138" as="geometry">
            <mxRectangle x="130" y="380" width="160" height="26" as="alternateBounds" />
          </mxGeometry>
        </mxCell>
        <mxCell id="0GUvXhndow0v7ntM_QwC-69" value="Success: int" style="text;align=left;verticalAlign=top;spacingLeft=4;spacingRight=4;overflow=hidden;rotatable=0;points=[[0,0.5],[1,0.5]];portConstraint=eastwest;" vertex="1" parent="0GUvXhndow0v7ntM_QwC-68">
          <mxGeometry y="26" width="160" height="26" as="geometry" />
        </mxCell>
        <mxCell id="0GUvXhndow0v7ntM_QwC-70" value="Pending: int" style="text;align=left;verticalAlign=top;spacingLeft=4;spacingRight=4;overflow=hidden;rotatable=0;points=[[0,0.5],[1,0.5]];portConstraint=eastwest;" vertex="1" parent="0GUvXhndow0v7ntM_QwC-68">
          <mxGeometry y="52" width="160" height="28" as="geometry" />
        </mxCell>
        <mxCell id="0GUvXhndow0v7ntM_QwC-73" value="Denied: int" style="text;align=left;verticalAlign=top;spacingLeft=4;spacingRight=4;overflow=hidden;rotatable=0;points=[[0,0.5],[1,0.5]];portConstraint=eastwest;" vertex="1" parent="0GUvXhndow0v7ntM_QwC-68">
          <mxGeometry y="80" width="160" height="18" as="geometry" />
        </mxCell>
        <mxCell id="0GUvXhndow0v7ntM_QwC-147" style="edgeStyle=orthogonalEdgeStyle;rounded=0;orthogonalLoop=1;jettySize=auto;html=1;entryX=1;entryY=0.5;entryDx=0;entryDy=0;" edge="1" parent="WIyWlLk6GJQsqaUBKTNV-1" source="0GUvXhndow0v7ntM_QwC-74" target="0GUvXhndow0v7ntM_QwC-28">
          <mxGeometry relative="1" as="geometry" />
        </mxCell>
        <mxCell id="0GUvXhndow0v7ntM_QwC-74" value="Band" style="swimlane;fontStyle=0;align=center;verticalAlign=top;childLayout=stackLayout;horizontal=1;startSize=26;horizontalStack=0;resizeParent=1;resizeLast=0;collapsible=1;marginBottom=0;rounded=0;shadow=0;strokeWidth=1;" vertex="1" parent="WIyWlLk6GJQsqaUBKTNV-1">
          <mxGeometry x="910" y="1000" width="160" height="160" as="geometry">
            <mxRectangle x="130" y="380" width="160" height="26" as="alternateBounds" />
          </mxGeometry>
        </mxCell>
        <mxCell id="0GUvXhndow0v7ntM_QwC-88" value="Name: string" style="text;align=left;verticalAlign=top;spacingLeft=4;spacingRight=4;overflow=hidden;rotatable=0;points=[[0,0.5],[1,0.5]];portConstraint=eastwest;" vertex="1" parent="0GUvXhndow0v7ntM_QwC-74">
          <mxGeometry y="26" width="160" height="26" as="geometry" />
        </mxCell>
        <mxCell id="0GUvXhndow0v7ntM_QwC-89" value="Gender: enum" style="text;align=left;verticalAlign=top;spacingLeft=4;spacingRight=4;overflow=hidden;rotatable=0;points=[[0,0.5],[1,0.5]];portConstraint=eastwest;" vertex="1" parent="0GUvXhndow0v7ntM_QwC-74">
          <mxGeometry y="52" width="160" height="26" as="geometry" />
        </mxCell>
        <mxCell id="0GUvXhndow0v7ntM_QwC-101" value="Artists: string" style="text;align=left;verticalAlign=top;spacingLeft=4;spacingRight=4;overflow=hidden;rotatable=0;points=[[0,0.5],[1,0.5]];portConstraint=eastwest;" vertex="1" parent="0GUvXhndow0v7ntM_QwC-74">
          <mxGeometry y="78" width="160" height="26" as="geometry" />
        </mxCell>
        <mxCell id="0GUvXhndow0v7ntM_QwC-102" value="Avatar: string" style="text;align=left;verticalAlign=top;spacingLeft=4;spacingRight=4;overflow=hidden;rotatable=0;points=[[0,0.5],[1,0.5]];portConstraint=eastwest;" vertex="1" parent="0GUvXhndow0v7ntM_QwC-74">
          <mxGeometry y="104" width="160" height="26" as="geometry" />
        </mxCell>
        <mxCell id="0GUvXhndow0v7ntM_QwC-108" value="Description: string" style="text;align=left;verticalAlign=top;spacingLeft=4;spacingRight=4;overflow=hidden;rotatable=0;points=[[0,0.5],[1,0.5]];portConstraint=eastwest;" vertex="1" parent="0GUvXhndow0v7ntM_QwC-74">
          <mxGeometry y="130" width="160" height="30" as="geometry" />
        </mxCell>
        <mxCell id="0GUvXhndow0v7ntM_QwC-148" style="edgeStyle=orthogonalEdgeStyle;rounded=0;orthogonalLoop=1;jettySize=auto;html=1;entryX=0.5;entryY=1;entryDx=0;entryDy=0;" edge="1" parent="WIyWlLk6GJQsqaUBKTNV-1" source="0GUvXhndow0v7ntM_QwC-78" target="0GUvXhndow0v7ntM_QwC-27">
          <mxGeometry relative="1" as="geometry" />
        </mxCell>
        <mxCell id="0GUvXhndow0v7ntM_QwC-78" value="Album" style="swimlane;fontStyle=0;align=center;verticalAlign=top;childLayout=stackLayout;horizontal=1;startSize=26;horizontalStack=0;resizeParent=1;resizeLast=0;collapsible=1;marginBottom=0;rounded=0;shadow=0;strokeWidth=1;" vertex="1" parent="WIyWlLk6GJQsqaUBKTNV-1">
          <mxGeometry x="910" y="1280" width="160" height="138" as="geometry">
            <mxRectangle x="130" y="380" width="160" height="26" as="alternateBounds" />
          </mxGeometry>
        </mxCell>
        <mxCell id="0GUvXhndow0v7ntM_QwC-103" value="Name: string" style="text;align=left;verticalAlign=top;spacingLeft=4;spacingRight=4;overflow=hidden;rotatable=0;points=[[0,0.5],[1,0.5]];portConstraint=eastwest;" vertex="1" parent="0GUvXhndow0v7ntM_QwC-78">
          <mxGeometry y="26" width="160" height="26" as="geometry" />
        </mxCell>
        <mxCell id="0GUvXhndow0v7ntM_QwC-107" value="Avatar: string" style="text;align=left;verticalAlign=top;spacingLeft=4;spacingRight=4;overflow=hidden;rotatable=0;points=[[0,0.5],[1,0.5]];portConstraint=eastwest;" vertex="1" parent="0GUvXhndow0v7ntM_QwC-78">
          <mxGeometry y="52" width="160" height="26" as="geometry" />
        </mxCell>
        <mxCell id="0GUvXhndow0v7ntM_QwC-109" value="Description: string" style="text;align=left;verticalAlign=top;spacingLeft=4;spacingRight=4;overflow=hidden;rotatable=0;points=[[0,0.5],[1,0.5]];portConstraint=eastwest;" vertex="1" parent="0GUvXhndow0v7ntM_QwC-78">
          <mxGeometry y="78" width="160" height="24" as="geometry" />
        </mxCell>
        <mxCell id="0GUvXhndow0v7ntM_QwC-82" value="Music" style="swimlane;fontStyle=0;align=center;verticalAlign=top;childLayout=stackLayout;horizontal=1;startSize=26;horizontalStack=0;resizeParent=1;resizeLast=0;collapsible=1;marginBottom=0;rounded=0;shadow=0;strokeWidth=1;" vertex="1" parent="WIyWlLk6GJQsqaUBKTNV-1">
          <mxGeometry x="910" y="1540" width="160" height="100" as="geometry">
            <mxRectangle x="130" y="380" width="160" height="26" as="alternateBounds" />
          </mxGeometry>
        </mxCell>
        <mxCell id="0GUvXhndow0v7ntM_QwC-149" style="edgeStyle=orthogonalEdgeStyle;rounded=0;orthogonalLoop=1;jettySize=auto;html=1;" edge="1" parent="0GUvXhndow0v7ntM_QwC-82" source="0GUvXhndow0v7ntM_QwC-110">
          <mxGeometry relative="1" as="geometry">
            <mxPoint x="-450" y="-780" as="targetPoint" />
          </mxGeometry>
        </mxCell>
        <mxCell id="0GUvXhndow0v7ntM_QwC-110" value="Name: string" style="text;align=left;verticalAlign=top;spacingLeft=4;spacingRight=4;overflow=hidden;rotatable=0;points=[[0,0.5],[1,0.5]];portConstraint=eastwest;" vertex="1" parent="0GUvXhndow0v7ntM_QwC-82">
          <mxGeometry y="26" width="160" height="24" as="geometry" />
        </mxCell>
        <mxCell id="0GUvXhndow0v7ntM_QwC-111" value="Duration: timestamp" style="text;align=left;verticalAlign=top;spacingLeft=4;spacingRight=4;overflow=hidden;rotatable=0;points=[[0,0.5],[1,0.5]];portConstraint=eastwest;" vertex="1" parent="0GUvXhndow0v7ntM_QwC-82">
          <mxGeometry y="50" width="160" height="24" as="geometry" />
        </mxCell>
        <mxCell id="0GUvXhndow0v7ntM_QwC-112" value="Lyrics: string" style="text;align=left;verticalAlign=top;spacingLeft=4;spacingRight=4;overflow=hidden;rotatable=0;points=[[0,0.5],[1,0.5]];portConstraint=eastwest;" vertex="1" parent="0GUvXhndow0v7ntM_QwC-82">
          <mxGeometry y="74" width="160" height="24" as="geometry" />
        </mxCell>
        <mxCell id="0GUvXhndow0v7ntM_QwC-86" value="Playlist" style="swimlane;fontStyle=0;align=center;verticalAlign=top;childLayout=stackLayout;horizontal=1;startSize=26;horizontalStack=0;resizeParent=1;resizeLast=0;collapsible=1;marginBottom=0;rounded=0;shadow=0;strokeWidth=1;" vertex="1" parent="WIyWlLk6GJQsqaUBKTNV-1">
          <mxGeometry x="1371" y="790" width="160" height="138" as="geometry">
            <mxRectangle x="1120" y="800" width="160" height="26" as="alternateBounds" />
          </mxGeometry>
        </mxCell>
        <mxCell id="0GUvXhndow0v7ntM_QwC-96" value="Name: string" style="text;align=left;verticalAlign=top;spacingLeft=4;spacingRight=4;overflow=hidden;rotatable=0;points=[[0,0.5],[1,0.5]];portConstraint=eastwest;" vertex="1" parent="0GUvXhndow0v7ntM_QwC-86">
          <mxGeometry y="26" width="160" height="24" as="geometry" />
        </mxCell>
        <mxCell id="0GUvXhndow0v7ntM_QwC-97" value="IsPublic: bool" style="text;align=left;verticalAlign=top;spacingLeft=4;spacingRight=4;overflow=hidden;rotatable=0;points=[[0,0.5],[1,0.5]];portConstraint=eastwest;" vertex="1" parent="0GUvXhndow0v7ntM_QwC-86">
          <mxGeometry y="50" width="160" height="24" as="geometry" />
        </mxCell>
        <mxCell id="0GUvXhndow0v7ntM_QwC-99" value="Avatar: string" style="text;align=left;verticalAlign=top;spacingLeft=4;spacingRight=4;overflow=hidden;rotatable=0;points=[[0,0.5],[1,0.5]];portConstraint=eastwest;" vertex="1" parent="0GUvXhndow0v7ntM_QwC-86">
          <mxGeometry y="74" width="160" height="24" as="geometry" />
        </mxCell>
        <mxCell id="0GUvXhndow0v7ntM_QwC-100" value="Description: string" style="text;align=left;verticalAlign=top;spacingLeft=4;spacingRight=4;overflow=hidden;rotatable=0;points=[[0,0.5],[1,0.5]];portConstraint=eastwest;" vertex="1" parent="0GUvXhndow0v7ntM_QwC-86">
          <mxGeometry y="98" width="160" height="24" as="geometry" />
        </mxCell>
        <mxCell id="0GUvXhndow0v7ntM_QwC-90" value="MusicGender" style="swimlane;fontStyle=0;align=center;verticalAlign=top;childLayout=stackLayout;horizontal=1;startSize=26;horizontalStack=0;resizeParent=1;resizeLast=0;collapsible=1;marginBottom=0;rounded=0;shadow=0;strokeWidth=1;" vertex="1" parent="WIyWlLk6GJQsqaUBKTNV-1">
          <mxGeometry x="1110" y="1000" width="160" height="160" as="geometry">
            <mxRectangle x="130" y="380" width="160" height="26" as="alternateBounds" />
          </mxGeometry>
        </mxCell>
        <mxCell id="0GUvXhndow0v7ntM_QwC-91" value="Rock: int" style="text;align=left;verticalAlign=top;spacingLeft=4;spacingRight=4;overflow=hidden;rotatable=0;points=[[0,0.5],[1,0.5]];portConstraint=eastwest;" vertex="1" parent="0GUvXhndow0v7ntM_QwC-90">
          <mxGeometry y="26" width="160" height="26" as="geometry" />
        </mxCell>
        <mxCell id="0GUvXhndow0v7ntM_QwC-95" value="Gospel: int" style="text;align=left;verticalAlign=top;spacingLeft=4;spacingRight=4;overflow=hidden;rotatable=0;points=[[0,0.5],[1,0.5]];portConstraint=eastwest;" vertex="1" parent="0GUvXhndow0v7ntM_QwC-90">
          <mxGeometry y="52" width="160" height="26" as="geometry" />
        </mxCell>
        <mxCell id="0GUvXhndow0v7ntM_QwC-94" value="Samba: int" style="text;align=left;verticalAlign=top;spacingLeft=4;spacingRight=4;overflow=hidden;rotatable=0;points=[[0,0.5],[1,0.5]];portConstraint=eastwest;" vertex="1" parent="0GUvXhndow0v7ntM_QwC-90">
          <mxGeometry y="78" width="160" height="26" as="geometry" />
        </mxCell>
        <mxCell id="0GUvXhndow0v7ntM_QwC-93" value="Classic: int" style="text;align=left;verticalAlign=top;spacingLeft=4;spacingRight=4;overflow=hidden;rotatable=0;points=[[0,0.5],[1,0.5]];portConstraint=eastwest;" vertex="1" parent="0GUvXhndow0v7ntM_QwC-90">
          <mxGeometry y="104" width="160" height="26" as="geometry" />
        </mxCell>
        <mxCell id="0GUvXhndow0v7ntM_QwC-92" value="Jazz: int" style="text;align=left;verticalAlign=top;spacingLeft=4;spacingRight=4;overflow=hidden;rotatable=0;points=[[0,0.5],[1,0.5]];portConstraint=eastwest;" vertex="1" parent="0GUvXhndow0v7ntM_QwC-90">
          <mxGeometry y="130" width="160" height="26" as="geometry" />
        </mxCell>
        <mxCell id="0GUvXhndow0v7ntM_QwC-118" value="Relation" style="endArrow=open;html=1;endSize=12;startArrow=diamondThin;startSize=14;startFill=0;edgeStyle=orthogonalEdgeStyle;rounded=0;entryX=0.5;entryY=0;entryDx=0;entryDy=0;" edge="1" parent="WIyWlLk6GJQsqaUBKTNV-1">
          <mxGeometry x="0.1762" y="10" relative="1" as="geometry">
            <mxPoint x="984.44" y="1160" as="sourcePoint" />
            <mxPoint x="984.78" y="1280" as="targetPoint" />
            <mxPoint as="offset" />
          </mxGeometry>
        </mxCell>
        <mxCell id="0GUvXhndow0v7ntM_QwC-119" value="1." style="edgeLabel;resizable=0;html=1;align=left;verticalAlign=top;" connectable="0" vertex="1" parent="0GUvXhndow0v7ntM_QwC-118">
          <mxGeometry x="-1" relative="1" as="geometry">
            <mxPoint x="10" as="offset" />
          </mxGeometry>
        </mxCell>
        <mxCell id="0GUvXhndow0v7ntM_QwC-120" value="1.*" style="edgeLabel;resizable=0;html=1;align=right;verticalAlign=top;" connectable="0" vertex="1" parent="0GUvXhndow0v7ntM_QwC-118">
          <mxGeometry x="1" relative="1" as="geometry">
            <mxPoint x="30" y="-40" as="offset" />
          </mxGeometry>
        </mxCell>
        <mxCell id="0GUvXhndow0v7ntM_QwC-121" value="Relation" style="endArrow=open;html=1;endSize=12;startArrow=diamondThin;startSize=14;startFill=0;edgeStyle=orthogonalEdgeStyle;rounded=0;entryX=0.5;entryY=0;entryDx=0;entryDy=0;" edge="1" parent="WIyWlLk6GJQsqaUBKTNV-1">
          <mxGeometry relative="1" as="geometry">
            <mxPoint x="989.6300000000001" y="1418" as="sourcePoint" />
            <mxPoint x="989.97" y="1538" as="targetPoint" />
            <Array as="points">
              <mxPoint x="989.97" y="1478" />
              <mxPoint x="989.97" y="1478" />
            </Array>
          </mxGeometry>
        </mxCell>
        <mxCell id="0GUvXhndow0v7ntM_QwC-124" value="1." style="edgeLabel;resizable=0;html=1;align=left;verticalAlign=top;" connectable="0" vertex="1" parent="WIyWlLk6GJQsqaUBKTNV-1">
          <mxGeometry x="1000.0000000000001" y="1417.9999999999998" as="geometry" />
        </mxCell>
        <mxCell id="0GUvXhndow0v7ntM_QwC-126" value="1.*" style="edgeLabel;resizable=0;html=1;align=right;verticalAlign=top;" connectable="0" vertex="1" parent="WIyWlLk6GJQsqaUBKTNV-1">
          <mxGeometry x="1010" y="1500.0033458591613" as="geometry" />
        </mxCell>
        <mxCell id="0GUvXhndow0v7ntM_QwC-128" value="Relation" style="endArrow=open;html=1;endSize=12;startArrow=diamondThin;startSize=14;startFill=0;edgeStyle=orthogonalEdgeStyle;rounded=0;" edge="1" parent="WIyWlLk6GJQsqaUBKTNV-1">
          <mxGeometry x="0.1762" y="10" relative="1" as="geometry">
            <mxPoint x="1220" y="869.58" as="sourcePoint" />
            <mxPoint x="1370" y="869.58" as="targetPoint" />
            <mxPoint as="offset" />
          </mxGeometry>
        </mxCell>
        <mxCell id="0GUvXhndow0v7ntM_QwC-129" value="1." style="edgeLabel;resizable=0;html=1;align=left;verticalAlign=top;" connectable="0" vertex="1" parent="0GUvXhndow0v7ntM_QwC-128">
          <mxGeometry x="-1" relative="1" as="geometry">
            <mxPoint x="10" as="offset" />
          </mxGeometry>
        </mxCell>
        <mxCell id="0GUvXhndow0v7ntM_QwC-130" value="1.*" style="edgeLabel;resizable=0;html=1;align=right;verticalAlign=top;" connectable="0" vertex="1" parent="0GUvXhndow0v7ntM_QwC-128">
          <mxGeometry x="1" relative="1" as="geometry">
            <mxPoint x="-20" y="-30" as="offset" />
          </mxGeometry>
        </mxCell>
        <mxCell id="0GUvXhndow0v7ntM_QwC-133" value="" style="endArrow=none;html=1;edgeStyle=orthogonalEdgeStyle;rounded=0;entryX=0.5;entryY=1;entryDx=0;entryDy=0;exitX=1;exitY=0.5;exitDx=0;exitDy=0;" edge="1" parent="WIyWlLk6GJQsqaUBKTNV-1" source="0GUvXhndow0v7ntM_QwC-111" target="0GUvXhndow0v7ntM_QwC-86">
          <mxGeometry relative="1" as="geometry">
            <mxPoint x="1080" y="1789.58" as="sourcePoint" />
            <mxPoint x="1240" y="1789.58" as="targetPoint" />
          </mxGeometry>
        </mxCell>
        <mxCell id="0GUvXhndow0v7ntM_QwC-134" value="parent" style="edgeLabel;resizable=0;html=1;align=left;verticalAlign=bottom;" connectable="0" vertex="1" parent="0GUvXhndow0v7ntM_QwC-133">
          <mxGeometry x="-1" relative="1" as="geometry">
            <mxPoint y="-2" as="offset" />
          </mxGeometry>
        </mxCell>
        <mxCell id="0GUvXhndow0v7ntM_QwC-135" value="child" style="edgeLabel;resizable=0;html=1;align=right;verticalAlign=bottom;" connectable="0" vertex="1" parent="0GUvXhndow0v7ntM_QwC-133">
          <mxGeometry x="1" relative="1" as="geometry">
            <mxPoint x="-11" y="22" as="offset" />
          </mxGeometry>
        </mxCell>
        <mxCell id="0GUvXhndow0v7ntM_QwC-137" style="edgeStyle=orthogonalEdgeStyle;rounded=0;orthogonalLoop=1;jettySize=auto;html=1;exitX=0.5;exitY=0;exitDx=0;exitDy=0;entryX=1;entryY=0.943;entryDx=0;entryDy=0;entryPerimeter=0;" edge="1" parent="WIyWlLk6GJQsqaUBKTNV-1" source="0GUvXhndow0v7ntM_QwC-17" target="0GUvXhndow0v7ntM_QwC-30">
          <mxGeometry relative="1" as="geometry" />
        </mxCell>
        <mxCell id="0GUvXhndow0v7ntM_QwC-146" style="edgeStyle=orthogonalEdgeStyle;rounded=0;orthogonalLoop=1;jettySize=auto;html=1;entryX=0.007;entryY=0.053;entryDx=0;entryDy=0;entryPerimeter=0;" edge="1" parent="WIyWlLk6GJQsqaUBKTNV-1" source="0GUvXhndow0v7ntM_QwC-21" target="0GUvXhndow0v7ntM_QwC-30">
          <mxGeometry relative="1" as="geometry" />
        </mxCell>
        <mxCell id="0GUvXhndow0v7ntM_QwC-151" style="edgeStyle=orthogonalEdgeStyle;rounded=0;orthogonalLoop=1;jettySize=auto;html=1;entryX=0.991;entryY=0.081;entryDx=0;entryDy=0;entryPerimeter=0;" edge="1" parent="WIyWlLk6GJQsqaUBKTNV-1" source="0GUvXhndow0v7ntM_QwC-86" target="0GUvXhndow0v7ntM_QwC-29">
          <mxGeometry relative="1" as="geometry" />
        </mxCell>
        <mxCell id="0GUvXhndow0v7ntM_QwC-152" value="0.*" style="edgeLabel;resizable=0;html=1;align=right;verticalAlign=top;" connectable="0" vertex="1" parent="WIyWlLk6GJQsqaUBKTNV-1">
          <mxGeometry x="1090" y="1560.0033458591613" as="geometry" />
        </mxCell>
        <mxCell id="0GUvXhndow0v7ntM_QwC-153" value="0.*" style="edgeLabel;resizable=0;html=1;align=right;verticalAlign=top;" connectable="0" vertex="1" parent="WIyWlLk6GJQsqaUBKTNV-1">
          <mxGeometry x="1440" y="950.0033458591613" as="geometry" />
        </mxCell>
        <mxCell id="0GUvXhndow0v7ntM_QwC-157" value="1." style="edgeLabel;resizable=0;html=1;align=right;verticalAlign=top;" connectable="0" vertex="1" parent="WIyWlLk6GJQsqaUBKTNV-1">
          <mxGeometry x="799.9985738230865" y="849.9989324081396" as="geometry" />
        </mxCell>
        <mxCell id="0GUvXhndow0v7ntM_QwC-154" value="Relation" style="endArrow=open;html=1;endSize=12;startArrow=diamondThin;startSize=14;startFill=0;edgeStyle=orthogonalEdgeStyle;rounded=0;" edge="1" parent="WIyWlLk6GJQsqaUBKTNV-1">
          <mxGeometry x="0.1762" y="10" relative="1" as="geometry">
            <mxPoint x="820.0000000000001" y="876.49" as="sourcePoint" />
            <mxPoint x="701.11" y="877.49" as="targetPoint" />
            <mxPoint as="offset" />
            <Array as="points">
              <mxPoint x="761" y="876" />
              <mxPoint x="761" y="878" />
            </Array>
          </mxGeometry>
        </mxCell>
        <mxCell id="0GUvXhndow0v7ntM_QwC-156" value="1.*" style="edgeLabel;resizable=0;html=1;align=right;verticalAlign=top;" connectable="0" vertex="1" parent="0GUvXhndow0v7ntM_QwC-154">
          <mxGeometry x="1" relative="1" as="geometry">
            <mxPoint x="30" y="-29" as="offset" />
          </mxGeometry>
        </mxCell>
        <mxCell id="0GUvXhndow0v7ntM_QwC-161" value="Relation" style="endArrow=open;html=1;endSize=12;startArrow=diamondThin;startSize=14;startFill=0;edgeStyle=orthogonalEdgeStyle;rounded=0;exitX=1;exitY=1;exitDx=0;exitDy=0;entryX=0.75;entryY=1;entryDx=0;entryDy=0;" edge="1" parent="WIyWlLk6GJQsqaUBKTNV-1" source="0GUvXhndow0v7ntM_QwC-21" target="0GUvXhndow0v7ntM_QwC-7">
          <mxGeometry x="0.1762" y="10" relative="1" as="geometry">
            <mxPoint x="408.8900000000001" y="980" as="sourcePoint" />
            <mxPoint x="290" y="981" as="targetPoint" />
            <mxPoint as="offset" />
            <Array as="points">
              <mxPoint x="400" y="1120" />
            </Array>
          </mxGeometry>
        </mxCell>
        <mxCell id="0GUvXhndow0v7ntM_QwC-162" value="1." style="edgeLabel;resizable=0;html=1;align=left;verticalAlign=top;" connectable="0" vertex="1" parent="0GUvXhndow0v7ntM_QwC-161">
          <mxGeometry x="-1" relative="1" as="geometry">
            <mxPoint x="10" as="offset" />
          </mxGeometry>
        </mxCell>
        <mxCell id="0GUvXhndow0v7ntM_QwC-163" value="1." style="edgeLabel;resizable=0;html=1;align=right;verticalAlign=top;" connectable="0" vertex="1" parent="0GUvXhndow0v7ntM_QwC-161">
          <mxGeometry x="1" relative="1" as="geometry">
            <mxPoint x="-10" y="10" as="offset" />
          </mxGeometry>
        </mxCell>
        <mxCell id="0GUvXhndow0v7ntM_QwC-164" value="Relation" style="endArrow=open;html=1;endSize=12;startArrow=diamondThin;startSize=14;startFill=0;edgeStyle=orthogonalEdgeStyle;rounded=0;" edge="1" parent="WIyWlLk6GJQsqaUBKTNV-1">
          <mxGeometry x="0.1762" y="10" relative="1" as="geometry">
            <mxPoint x="539.44" y="870.01" as="sourcePoint" />
            <mxPoint x="440" y="871" as="targetPoint" />
            <mxPoint as="offset" />
            <Array as="points">
              <mxPoint x="480.44" y="869.52" />
              <mxPoint x="480.44" y="871.52" />
            </Array>
          </mxGeometry>
        </mxCell>
        <mxCell id="0GUvXhndow0v7ntM_QwC-165" value="1." style="edgeLabel;resizable=0;html=1;align=left;verticalAlign=top;" connectable="0" vertex="1" parent="0GUvXhndow0v7ntM_QwC-164">
          <mxGeometry x="-1" relative="1" as="geometry">
            <mxPoint x="-19" y="-30" as="offset" />
          </mxGeometry>
        </mxCell>
        <mxCell id="0GUvXhndow0v7ntM_QwC-166" value="1." style="edgeLabel;resizable=0;html=1;align=right;verticalAlign=top;" connectable="0" vertex="1" parent="0GUvXhndow0v7ntM_QwC-164">
          <mxGeometry x="1" relative="1" as="geometry">
            <mxPoint x="30" y="-29" as="offset" />
          </mxGeometry>
        </mxCell>
        <mxCell id="0GUvXhndow0v7ntM_QwC-167" value="Relation" style="endArrow=open;html=1;endSize=12;startArrow=diamondThin;startSize=14;startFill=0;edgeStyle=orthogonalEdgeStyle;rounded=0;exitX=0.982;exitY=1.019;exitDx=0;exitDy=0;exitPerimeter=0;entryX=-0.013;entryY=0.273;entryDx=0;entryDy=0;entryPerimeter=0;" edge="1" parent="WIyWlLk6GJQsqaUBKTNV-1" source="0GUvXhndow0v7ntM_QwC-44" target="0GUvXhndow0v7ntM_QwC-63">
          <mxGeometry x="0.1762" y="10" relative="1" as="geometry">
            <mxPoint x="707" y="1110" as="sourcePoint" />
            <mxPoint x="767.5500000000001" y="1051" as="targetPoint" />
            <mxPoint as="offset" />
            <Array as="points">
              <mxPoint x="707" y="1079" />
              <mxPoint x="707" y="980" />
              <mxPoint x="1010" y="980" />
              <mxPoint x="1010" y="896" />
            </Array>
          </mxGeometry>
        </mxCell>
        <mxCell id="0GUvXhndow0v7ntM_QwC-168" value="1." style="edgeLabel;resizable=0;html=1;align=left;verticalAlign=top;" connectable="0" vertex="1" parent="0GUvXhndow0v7ntM_QwC-167">
          <mxGeometry x="-1" relative="1" as="geometry">
            <mxPoint x="10" as="offset" />
          </mxGeometry>
        </mxCell>
        <mxCell id="0GUvXhndow0v7ntM_QwC-169" value="1.*" style="edgeLabel;resizable=0;html=1;align=right;verticalAlign=top;" connectable="0" vertex="1" parent="0GUvXhndow0v7ntM_QwC-167">
          <mxGeometry x="1" relative="1" as="geometry">
            <mxPoint x="30" y="-29" as="offset" />
          </mxGeometry>
        </mxCell>
        <mxCell id="0GUvXhndow0v7ntM_QwC-170" value="1." style="edgeLabel;resizable=0;html=1;align=left;verticalAlign=top;" connectable="0" vertex="1" parent="WIyWlLk6GJQsqaUBKTNV-1">
          <mxGeometry x="1030" y="870.0039999999999" as="geometry" />
        </mxCell>
        <mxCell id="0GUvXhndow0v7ntM_QwC-171" value="&lt;V.O.&gt; Password" style="swimlane;fontStyle=0;align=center;verticalAlign=top;childLayout=stackLayout;horizontal=1;startSize=26;horizontalStack=0;resizeParent=1;resizeLast=0;collapsible=1;marginBottom=0;rounded=0;shadow=0;strokeWidth=1;" vertex="1" parent="WIyWlLk6GJQsqaUBKTNV-1">
          <mxGeometry y="1210" width="160" height="50" as="geometry">
            <mxRectangle x="130" y="380" width="160" height="26" as="alternateBounds" />
          </mxGeometry>
        </mxCell>
        <mxCell id="0GUvXhndow0v7ntM_QwC-174" value="&lt;V.O.&gt; Value" style="swimlane;fontStyle=0;align=center;verticalAlign=top;childLayout=stackLayout;horizontal=1;startSize=26;horizontalStack=0;resizeParent=1;resizeLast=0;collapsible=1;marginBottom=0;rounded=0;shadow=0;strokeWidth=1;" vertex="1" parent="WIyWlLk6GJQsqaUBKTNV-1">
          <mxGeometry x="180" y="1210" width="160" height="50" as="geometry">
            <mxRectangle x="130" y="380" width="160" height="26" as="alternateBounds" />
          </mxGeometry>
        </mxCell>
      </root>
    </mxGraphModel>
  </diagram>
</mxfile>
